<svg xmlns="http://www.w3.org/2000/svg" viewBox="0 0 500 500"><g id="freepik--Shadows--inject-28"><polygon id="freepik--Shadow--inject-28" points="434.94 429.52 383.34 459.29 206.64 357.27 258.24 327.51 434.94 429.52" style="fill:#f0f0f0"></polygon><ellipse id="freepik--shadow--inject-28" cx="171.91" cy="420.86" rx="23.33" ry="13.47" style="fill:#f0f0f0"></ellipse></g><g id="freepik--Clouds--inject-28"><path id="freepik--Cloud--inject-28" d="M406.75,86.61c3.21-.48,5.36-1.51,5.79-3.21s-1-3.89-2.67-4.56A14.28,14.28,0,0,0,403,78c.3-2.94-2.42-6.43-5.1-7.91s-7.54-1.83-10.28.43c-.79-5.29-4.19-7.88-9.52-9.73-2.92-1-9-1.63-13.64,2.62-3.08-5.77-12.28-9.22-21.72-5.45a16.44,16.44,0,0,0-8.52,8,18.49,18.49,0,0,0-1.44,6.51A8.26,8.26,0,0,0,324,72a6.82,6.82,0,0,0-3.19,6.11,17.76,17.76,0,0,0-5.66,1.31c-2.05.86-4.18,2.79-3.43,4.81.56,1.53,2.46,2.13,4.14,2.37a25.35,25.35,0,0,0,10-.63,17.86,17.86,0,0,0,20.34-.49,33.23,33.23,0,0,0,4.21,2.72,16.78,16.78,0,0,0,4.89,1.31c2.85.3,6.87-.23,9.09-2.11a2,2,0,0,1,1.06-.59,1.82,1.82,0,0,1,.91.32,13.23,13.23,0,0,0,13.92-1,13.25,13.25,0,0,0,18.42-.74A14.68,14.68,0,0,0,406.75,86.61Z" style="fill:#f5f5f5"></path><path id="freepik--cloud--inject-28" d="M176.08,64.12c3.09-.47,5.16-1.47,5.57-3.1s-.93-3.75-2.56-4.39a13.71,13.71,0,0,0-6.67-.81c.28-2.84-2.33-6.2-4.91-7.63s-7.27-1.76-9.9.42c-.77-5.09-4-7.59-9.17-9.37-2.81-1-8.65-1.57-13.13,2.52-3-5.55-11.83-8.88-20.92-5.24a15.74,15.74,0,0,0-8.2,7.67,17.63,17.63,0,0,0-1.39,6.26,8,8,0,0,0-8.43-.4,6.51,6.51,0,0,0-3.06,5.88,16.72,16.72,0,0,0-5.46,1.26c-2,.83-4,2.68-3.31,4.63.55,1.47,2.38,2.06,4,2.28a24.28,24.28,0,0,0,9.6-.6A17.21,17.21,0,0,0,117.72,63a31.45,31.45,0,0,0,4,2.61,15.59,15.59,0,0,0,4.7,1.26c2.75.3,6.62-.22,8.76-2a1.28,1.28,0,0,1,1.89-.27,12.74,12.74,0,0,0,13.41-1,12.74,12.74,0,0,0,17.74-.72A14.1,14.1,0,0,0,176.08,64.12Z" style="fill:#f5f5f5"></path><path id="freepik--cloud--inject-28" d="M460.28,130.71a6.45,6.45,0,0,0-3.35-.66,4.42,4.42,0,0,0-2.4-4,5.37,5.37,0,0,0-4.91.26,5.85,5.85,0,0,0-2.91-3.64,7.16,7.16,0,0,0-5.45-.6,9,9,0,0,0-5.56-4.91,9.75,9.75,0,0,0-7.59.77c-5-5.4-19.24-4.48-20,4a10.18,10.18,0,0,0-6.13,0c-1.93.73-3.47,2.61-3.17,4.55a6,6,0,0,0-5,.63,3.9,3.9,0,0,0-1.67,4.31,9.74,9.74,0,0,0-3.23.43,2.22,2.22,0,0,0-1.38.94,1.46,1.46,0,0,0,.38,1.64,3.7,3.7,0,0,0,1.65.84,10.47,10.47,0,0,0,7.76-.86,8.47,8.47,0,0,0,9.87.33c1,1.82,4.86,1.73,6.67,1.65a15.17,15.17,0,0,0,7.53-2.31,1.32,1.32,0,0,1,.64-.26,1.28,1.28,0,0,1,.82.38c3.89,3,9.92,3.31,13.76.1a1.19,1.19,0,0,1,.44-.27,1.16,1.16,0,0,1,.76.19,15.71,15.71,0,0,0,6.78,1.87,10.45,10.45,0,0,0,6.65-2,1.33,1.33,0,0,1,.51-.27,1.13,1.13,0,0,1,.54.13,12.39,12.39,0,0,0,7.61.51c2.09-.56,2.81-2.22.78-3.46Z" style="fill:#f5f5f5"></path><path id="freepik--cloud--inject-28" d="M103,179.76a5.52,5.52,0,0,0-3.21-.74,5.07,5.07,0,0,0-2.3-4.48,4.54,4.54,0,0,0-4.72.29A6.35,6.35,0,0,0,90,170.78a6,6,0,0,0-5.23-.66,9.22,9.22,0,0,0-5.33-5.46,8.25,8.25,0,0,0-7.28.86c-4.84-6-18.47-5-19.19,4.44a8.55,8.55,0,0,0-5.88,0,5.07,5.07,0,0,0-3,5,5.14,5.14,0,0,0-4.79.7,4.74,4.74,0,0,0-1.61,4.8,8,8,0,0,0-3.09.48,2.16,2.16,0,0,0-1.32,1,1.77,1.77,0,0,0,.36,1.82,3.33,3.33,0,0,0,1.58.94,8.91,8.91,0,0,0,7.45-.95,7.27,7.27,0,0,0,9.47.36c.93,2,4.66,1.92,6.4,1.83a13.27,13.27,0,0,0,7.23-2.56,1.21,1.21,0,0,1,.61-.3,1.25,1.25,0,0,1,.79.43c3.73,3.35,9.51,3.68,13.2.11a.74.74,0,0,1,1.15-.09A13.62,13.62,0,0,0,88,185.67a9.17,9.17,0,0,0,6.38-2.21,1.06,1.06,0,0,1,.49-.3,1,1,0,0,1,.52.14,10.3,10.3,0,0,0,7.3.57c2-.62,2.69-2.46.75-3.84A3.62,3.62,0,0,0,103,179.76Z" style="fill:#f5f5f5"></path></g><g id="freepik--Arrows--inject-28"><g id="freepik--Arrow--inject-28"><polygon points="125.15 400.45 72.49 309.37 78.5 305.9 49.11 288.94 49.11 322.87 55.12 319.4 90.4 380.39 125.15 400.45" style="fill:#f0f0f0"></polygon><polygon points="49.11 288.94 62.83 281.02 92.22 297.99 78.5 305.9 49.11 288.94" style="fill:#fafafa"></polygon><path d="M62.83,282.29,90,298l-11.5,6.64L51.32,288.94l11.51-6.65m0-1.27-13.72,7.92,29.39,17L92.21,298,62.83,281Z" style="fill:#f0f0f0"></path><rect x="97.76" y="298.35" width="15.84" height="105.2" transform="translate(-161.31 99.85) rotate(-30)" style="fill:#e6e6e6"></rect></g><g id="freepik--arrow--inject-28"><polygon points="443.73 327.32 355.1 173.77 361.12 170.3 331.69 153.31 331.69 187.29 337.7 183.82 408.94 307.24 443.73 327.32" style="fill:#f0f0f0"></polygon><polygon points="331.69 153.31 345.42 145.38 374.85 162.37 361.12 170.3 331.69 153.31" style="fill:#fafafa"></polygon><path d="M345.42,146.66l27.22,15.71L361.12,169,333.9,153.31l11.52-6.65m0-1.28-13.73,7.93,29.43,17,13.73-7.93-29.43-17Z" style="fill:#f0f0f0"></path><rect x="398.36" y="157.94" width="15.86" height="177.29" transform="translate(-68.86 236.17) rotate(-30)" style="fill:#e6e6e6"></rect></g></g><g id="freepik--Characters--inject-28"><g id="freepik--arrow--inject-28"><polygon points="383.35 452.85 251.06 223.79 268.53 213.71 183.05 164.35 183.05 263.06 200.53 252.97 282.28 394.5 383.35 452.85" style="fill:#F5CD3F"></polygon><polygon points="383.35 452.85 251.06 223.79 268.53 213.71 183.05 164.35 183.05 263.06 200.53 252.97 282.28 394.5 383.35 452.85" style="fill:#fff;opacity:0.2"></polygon><polygon points="183.05 164.35 222.94 141.32 308.43 190.67 268.53 213.71 183.05 164.35" style="fill:#F5CD3F"></polygon><polygon points="183.05 164.35 222.94 141.32 308.43 190.67 268.53 213.71 183.05 164.35" style="fill:#fff;opacity:0.5"></polygon><rect x="314.12" y="194.55" width="46.06" height="264.51" transform="translate(-118.23 212.35) rotate(-30)" style="fill:#F5CD3F"></rect></g><g id="freepik--characters--inject-28"><path d="M232.1,75.44c-3.2.7-7.32,2.77-9.44,12.43-1.58,7.21-4.91,26-4.91,26S210.45,129.7,207,137a20.5,20.5,0,0,1-4.43,5.86.71.71,0,0,0-.25.45,6.45,6.45,0,0,0,.21.81c.05.34.08.69.1,1s.95,6.52,1,6.5l1.93-.69s1.24-.3,7-2.26a10.15,10.15,0,0,0,3.61-3.52,16.54,16.54,0,0,0,.47-2.07h0s3.35-4.76,8.16-11.37c5.67-7.77,6-9.65,7-14.62l3.89-19Z" style="fill:#f28f8f"></path><path d="M232.63,74.52c-5.06,1.64-8.25,4-10.38,13.55s-4.73,25.67-4.73,25.67l-1.74,4.39a15.74,15.74,0,0,1,7.74,1.21,11.8,11.8,0,0,1,5.5,6,11.74,11.74,0,0,0,2.76-4.62c1.57-4.15,4.72-22.57,4.72-22.57Z" style="fill:#ebebeb"></path><path d="M224.37,116.57c-3.56-1.39-7.86-1.21-9.2.26s-.36,2.14-1,2.9a2.24,2.24,0,0,0-.43,2.81l.69-1.31s4.45-.79,7.53.79c5.06,2.61,5.46,5.92,5.46,5.92l-.65,1a2.13,2.13,0,0,0,1.55-.75,7.92,7.92,0,0,0,1-2c.3-.69,1-.66,1.78-2.11C231.79,122.74,230,118.64,224.37,116.57Z" style="fill:#e0e0e0"></path><g id="freepik--Character--inject-28"><g id="freepik--Bottom--inject-28"><path d="M160.12,354.12c1-2.59.9-7.35.14-15.71l15.3,1.81s-2.65,13.4-2.61,16.14C173.07,363.34,160.12,354.12,160.12,354.12Z" style="fill:#ffbda7"></path><path d="M157.52,359.05c-.17-.26-.62-.82-.6-1a6,6,0,0,1,1.56-2.78,7.4,7.4,0,0,0,1.41-2.56c.28-.67.36-1.31.84-1.55a9.17,9.17,0,0,1,5.83.09c2.94.93,4.91,2.61,4.9,4.49,0,1.43-.22,2.35.45,2.1s1-1.51,1-1.51a9.06,9.06,0,0,0,.2,1.37,19.06,19.06,0,0,0,.36,3.54c.55,2.38,1.39,5.33,3.5,6.72a24.31,24.31,0,0,0,4.54,2.18,5.16,5.16,0,0,1,2,1.49,3.76,3.76,0,0,1,.15,3.49,4.94,4.94,0,0,1-2.05,2,10.5,10.5,0,0,1-3.32.38,28.87,28.87,0,0,1-6.94-.48,10.64,10.64,0,0,1-4.06-1.49,9.32,9.32,0,0,1-2.89-3.48c-.71-1.35-1.23-2.78-1.85-4.18a46.09,46.09,0,0,0-3-5.48c-.5-.82-1.68-2.42-2.08-3.28Z" style="fill:#455a64"></path><path d="M162.2,371.31a10.32,10.32,0,0,0,.64,1.87,5.57,5.57,0,0,0,2,2.48,12.8,12.8,0,0,0,2,1,20.38,20.38,0,0,0,6,1.35,25.12,25.12,0,0,0,4.67,0,13.92,13.92,0,0,1-5.42-2.54,9,9,0,0,1-2.15-2.16q-.22-.32-.42-.63a38.88,38.88,0,0,1-2.63-6.36,15.41,15.41,0,0,0-1.51-3,11.87,11.87,0,0,0-2.41-2.39c-3.68-3-6.61-2.27-6.63-2.26-.42.27-.21,1.59.1,2.18a23,23,0,0,0,2.32,3.24c.44.53.86,1.08,1.27,1.63a9.7,9.7,0,0,1,1.53,2.67,20.12,20.12,0,0,1,.49,2.07C162.06,370.76,162.13,371,162.2,371.31Z"></path><path d="M184.06,374.18a2.92,2.92,0,0,1-.4.91,4.75,4.75,0,0,1-2.37,1.49,12,12,0,0,1-5.94,0,9.41,9.41,0,0,1-5-3.18,11.94,11.94,0,0,1-1.71-3.16,21.37,21.37,0,0,1-1.08-2.89,14.18,14.18,0,0,0-2.38-5.64c-2-2.61-5.55-4.5-7.76-4.12a2.1,2.1,0,0,0-1.15,1.07s2.72-.13,6.41,2.46a8.81,8.81,0,0,1,3,3.9c1.31,3.09,1.71,6.4,3.79,9.15a9.22,9.22,0,0,0,3.35,2.86,12,12,0,0,0,8.71.31c1.06-.33,2.64-1.44,2.59-2C184.17,375.12,184.12,374.43,184.06,374.18Z" style="fill:#263238"></path><path d="M133.13,251.62a38.42,38.42,0,0,0,8.87,24.2,46.85,46.85,0,0,1,4.38,6c5.12,8.51,14.39,25.09,14.39,25.09s-1.84,5.92-1.37,18.22c.4,10.3,1.11,19.47,1.11,19.47a17,17,0,0,1,6.59-.12c6.32,1.18,7.14,3.57,7.14,3.57s4.36-16.33,7.23-33.51c1.36-8.1,1.91-11.07-.91-20.4-3.9-12.87-9.34-30.88-9.34-30.88l-10.5-24.4Z" style="fill:#37474f"></path><path d="M172.2,280.32c1.26,1.76,5.05,7,9.46,17.92-.29-1.23-.64-2.57-1.1-4.09-3.9-12.87-9.34-30.88-9.34-30.88l-10.5-24.4h0l-11.57,23c1.87,5.66,6.79,10.94,11.92,12.7C166.68,276.51,170.94,278.56,172.2,280.32Z" style="fill:#263238"></path><path d="M228,323c.45,1.3.66,2.36,2.56,3.08s4.64,0,6.87-1.41a8.34,8.34,0,0,0,3.29-4.5c.69-1.82,1.06-3.28,1.29-4s1.86-2.46,3.49-4,5-4.72,5.16-8.68a9.55,9.55,0,0,0-1.63-6.2Z" style="fill:#263238"></path><path d="M235.57,303.11c-3.15,3.83-8.7,8.39-11.73,11.58-.47,1.68,2.59,6.12,4.48,9.22,3.34,2.33,8.27.42,10.43-2.66,1-1.77,1.29-3.58,2.23-5.42a14.08,14.08,0,0,1,3-3.72,40.39,40.39,0,0,0,3.75-4.22c2.82-4.2,2.72-8.75.82-11.32C246.17,293.31,242.6,294.57,235.57,303.11Z" style="fill:#455a64"></path><path d="M221.77,311.6c.07.12,3.46,5.15,3.46,5.15s1.11,1.08,5-.66,5.78-4.59,5.88-5.95c0,0-1.53-3.44-2.41-5.35Z" style="fill:#ffbda7"></path><path d="M148.46,260.49c4.41,8.77,13.14,13.23,25.13,13.75a106.36,106.36,0,0,1,16,3.91c6.76,2.1,13.29,4.53,13.29,4.53a32,32,0,0,0,5.7,12.59c5.63,7.49,13.66,17.86,13.66,17.86a13,13,0,0,0,7.77-2.39c3.49-2.64,4.48-4.86,4.48-4.86s-9.38-25-12.34-32.63c-2.08-5.35-3.54-9.16-11.86-14.61-7.88-5.16-33.64-18.54-35.34-20.36l-32.61,3.19A75.46,75.46,0,0,0,148.46,260.49Z" style="fill:#37474f"></path></g><g id="freepik--Top--inject-28"><path d="M109.79,241c1.19,8.52,3.06,17.86,3.53,20.58a38.78,38.78,0,0,1,.35,7.54c0,1.62,0,3.24-.07,4.87a17.3,17.3,0,0,0,.5,4.91,24.12,24.12,0,0,0,2.75,5.52c1.09,1.82,2.24,3.61,3.45,5.35a1.3,1.3,0,0,0,.69.6c.47.11,1-.5,1.08-.91a4.46,4.46,0,0,0,.11-1.5s1.32.86,1.7,1.07c1.38.78,1.75-.85,1-2.78-.44-1.06-1.11-2.05-1.65-3.06a17.84,17.84,0,0,1-1.28-2.86,7.63,7.63,0,0,1,0-4.44c.43-1.61,1.26-2.09,1.66-1.3s.61,3.91,1.51,5,3,1.94,2.77.31a73.59,73.59,0,0,1,.31-8.12c.14-2.77-2.62-5.8-3.52-8.13s-.33-21.7-.21-27.24L137,205.65l-3.56-13.22c-6.14.33-8.79,4.26-11.84,10.75s-7,17.21-10.41,25.14C108.47,234.62,109.16,236.43,109.79,241Z" style="fill:#ffbda7"></path><path d="M131.46,191.79c-5.19,1.43-8.16,4.43-12.67,15.72s-7.71,19.66-8.89,23.06-.77,5.86-.27,9.24c3.76,2.18,10.68,2.49,14.71.72l.39-4.07,10.84-24.25Z" style="fill:#ebebeb"></path><path d="M109.14,235.4l.14,1.89s2.41,1.66,7.73,2,7.56-1,7.56-1l.14-1.61s1.05.44.65,2.39a7.08,7.08,0,0,0-.2,3.67c.25,1.36-2.77,4.73-9.24,3.72s-7.79-3-7.63-5,.5-2.05,0-3.66S107.89,235.47,109.14,235.4Z" style="fill:#e0e0e0"></path><polygon points="154.1 185.43 153.52 196.36 137.8 196.7 138.41 184.87 154.1 185.43" style="fill:#ffbda7"></polygon><path d="M159.14,164.59c1.24,1.34,5.11,5.38,5.32,6.2l-2.73,2Z" style="fill:#f0997a"></path><path d="M149.1,154.27c4.49-.86,8.68,2.24,10.8,11.78.08.37.69.92,1.23,2.33,2.33,6.05,1.8,12,.89,13.69-2.46,2.33-6.18,3.5-10.44,3.49-3.25,0-10.48.32-15-3.69-5.33-4.71-10.51-13-7.36-17.28C133.65,158.55,146.62,154.75,149.1,154.27Z" style="fill:#ffbda7"></path><path d="M162,182.07c-.51.91-5.36,3.53-8,3.92l.08-2.06A33.74,33.74,0,0,0,162,182.07Z" style="fill:#f0997a"></path><path d="M130.11,162c-3.15,2.29-4.31,9.23,1.46,15.93,2.43,2.83,4.38,3.67,6.84,7a11.3,11.3,0,0,0,9-.77c3-3.1,1.25-7.82,1.25-7.82s-1.42,2.6-4.72,0c-2-1.59-3.36-6.53.42-7.14a4.16,4.16,0,0,1,2.89.72,11.28,11.28,0,0,1,1.81,1.78.84.84,0,0,0,1.5-.38,6.21,6.21,0,0,0-.15-2.76c-1.62-4,1.92-3.55,3-5.27.64-1-.28-2.87-.56-3.86C149.1,158.42,130.11,162,130.11,162Z" style="fill:#263238"></path><path d="M152.81,159.37c-.07-.86,2.06-3.14,3-2.71a9.52,9.52,0,0,1,1,1.25c2.12-.47,2.06-3.81-.47-4.78,1.42-.36,1.48-1.32,1.25-2.44-1.6,1.77-5.53-1-11-.72-5.18.27-8.55,1.65-13.13,4.16-3.93,2.16-5.63,5.87-4.55,9.22C132.64,165.57,148.36,162.13,152.81,159.37Z" style="fill:#263238"></path><path d="M123.12,207c-.27-5.67,2-12.33,5.83-14.3a24.78,24.78,0,0,1,9.16-2l0,.81c2.26,1.62,12.16,2,15.37.92,0,0,9.34.43,12.47-.49s2.44,2.88,4.44,5.92c2.07,3.68,2.76,8.94,3.42,18.34.33,4.75.6,8.65,1,11.94a44.23,44.23,0,0,0,3.39,12.22c-.92,2.08-4.63,7.59-14.87,12.15-7.12,3.18-17.92,3.89-24,2.54s-6.48-2.1-6.48-2.1a101.15,101.15,0,0,0-1.21-11,74.14,74.14,0,0,0-3.18-12.74C125.3,219.82,123.45,214.3,123.12,207Z" style="fill:#f5f5f5"></path><path d="M137.06,191.77V192l.44.32c1.91,1.37,7.31,1.74,10.2,1.74a22.9,22.9,0,0,0,5.89-.62c.58,0,2.46.09,4.61.09a33.47,33.47,0,0,0,8-.63,2,2,0,0,1,.53-.09c.48,0,.72.5,1.25,2.1a14.52,14.52,0,0,0,1.52,3.47c2,3.5,2.62,8.57,3.28,17.89l.08,1.11c.3,4.2.55,7.82.91,10.88A45.94,45.94,0,0,0,177,240.33c-.82,1.56-4.21,6.81-14.16,11.25a43.33,43.33,0,0,1-16.65,3.1,32.55,32.55,0,0,1-6.71-.62,29,29,0,0,1-5.71-1.66c-.09-1.42-.38-5.69-1.2-10.63a75.06,75.06,0,0,0-3.16-12.71l-.07-.19c-3.07-9.2-4.93-14.76-5.26-21.91-.26-5.74,2.11-11.74,5.3-13.36a21.48,21.48,0,0,1,7.65-1.83m1.05-1.09a24.78,24.78,0,0,0-9.16,2c-3.87,2-6.1,8.63-5.83,14.3.33,7.29,2.18,12.81,5.31,22.19a74.14,74.14,0,0,1,3.18,12.74,101.15,101.15,0,0,1,1.21,11s.31.73,6.48,2.1a32.62,32.62,0,0,0,6.92.65c5.61,0,12.19-1,17.05-3.19,10.24-4.56,13.95-10.07,14.87-12.15a44.23,44.23,0,0,1-3.39-12.22c-.38-3.29-.65-7.19-1-11.94-.66-9.4-1.35-14.66-3.42-18.34-1.8-2.73-1.52-6.05-3.63-6.05a2.88,2.88,0,0,0-.81.13,34.94,34.94,0,0,1-7.72.59c-2.59,0-4.75-.1-4.75-.1a19.93,19.93,0,0,1-5.75.63c-3.86,0-8.21-.55-9.62-1.55l0-.81Z" style="fill:#e0e0e0"></path><path d="M197.73,188.42c-4.15,4.16-6.45,5.86-12.55,11.42s-10.36,9.09-11.42,13.63-5-1.25-7-6.8a19.37,19.37,0,0,1-.72-12.25c2-3.14,3.13-3.47,6.8-6.64,3.18-2.75,5.56-4.45,8.22-6.7,3.45-2.91,6.76-6.08,6.76-6.08s6.83-15,9.32-20a43.26,43.26,0,0,0,4-11.12c.82-3.54,1.47-5.1,1.67-7.67s.39-4.33,2.59-2.74.4,4.83,1.81,6.5c.84,1,2,.94,2.87,1.09a7.29,7.29,0,0,0,2.22-.12,7.72,7.72,0,0,0,1.24-.27,2.07,2.07,0,0,0,.58-.19c.27-.11.51-.16.79-.27a4.64,4.64,0,0,0,.79-.43,6.28,6.28,0,0,0,.7-.55c.65-.58,1.19-1.24,1.83-1.84a11.6,11.6,0,0,1,2.07-1.59,2.94,2.94,0,0,1,2.63-.46c.12,0,.18,0,.28.24a1,1,0,0,1-.13.9c-.2.34-.59,1.13-.78,1.48a5.58,5.58,0,0,0-.42.78c-.11.29-.13.51-.21.77-1.13,3.52-1,5.44-3.95,8.27s-7.8,3.44-8.74,8.1-3.27,12.92-5.28,20.94C202.27,182.38,201.57,184.56,197.73,188.42Z" style="fill:#ffbda7"></path><path d="M199.7,178.47c-4.54-.23-7.74-2.22-11.57-4.43l-.5.88s-6.87,5.5-11.59,9.44-8.53,6.62-11.23,7.77c-2,3.41-2.25,13.6,1.06,19.14s7.69,5.27,7.69,5.27a26.82,26.82,0,0,1,2-5.78c1.3-2.48,12.09-12.67,17.29-17.23s8.58-8.09,9.62-11.43c.27-.86.57-2.14,1-3.62C202.19,178.54,200.94,178.53,199.7,178.47Z" style="fill:#ebebeb"></path><path d="M189.89,170.39l-.64,1.4s1.66,2.48,6.76,4,7.72.72,7.72.72l.38-1.5a2,2,0,0,1,.43,2.64,6.55,6.55,0,0,0-.84,3.49c-.06,1.38-4.32,3.84-10.39,1.38s-7.34-6.17-6.73-8.05,1.17-1,1.58-2.69S189,170.1,189.89,170.39Z" style="fill:#e0e0e0"></path><path d="M156.1,192.51s-7.1,3.29-14.3,1.77c-6.75-1.43-5.61-3.82-5.61-3.82s.86-3.61,2.15-4.12l-.11,1.32s1.28,1.39,4.81,1.83a34.26,34.26,0,0,0,10.89-.88l.06-1.12c1.4.82,2.38,3.26,3.18,5Z" style="fill:#ebebeb"></path></g></g><path d="M213.77,152a3.26,3.26,0,0,1-1.51,1.32,9.57,9.57,0,0,1-2.92.46,7,7,0,0,0-1.2-.11,4.33,4.33,0,0,0-1.84.59c-.55.28-1.14.45-1.69.77-.27.15-.59.48-.43.83a4,4,0,0,0-1.24.09c-.43.12-1.25.59-1,1.14a1.2,1.2,0,0,0,.29.38l2.08,2.1a2.85,2.85,0,0,0,.57.47,2.14,2.14,0,0,0,1.7,0,3.84,3.84,0,0,0,.93-.46c.34-.25.6-.59.94-.84.71-.51,1.68-.59,2.3-1.2.39-.38.59-.92.95-1.33a12.2,12.2,0,0,1,1-.89A12.41,12.41,0,0,0,213.77,152Z" style="fill:#f28f8f"></path><path d="M199.85,149.28c-.14.42-.29.83-.4,1.26-.29,1.12-.29,2.29-.47,3.43a6.34,6.34,0,0,1-.69,2.13c-.26.44-.93,1.35-1.56,1a.84.84,0,0,1-.36-.53c-.29-.83-.54-1.68-.76-2.53a6.7,6.7,0,0,1-.35-2.47,14.55,14.55,0,0,1,.72-2.89,6.52,6.52,0,0,1,.5-1.19,6.67,6.67,0,0,1,1.65-1.66c.92-.73,2.17-1.82,3.09-2.54,0,.28-.11,1-.15,1.14-.11.55-.23,1.1-.36,1.64A31.93,31.93,0,0,1,199.85,149.28Z" style="fill:#f28f8f"></path><g id="freepik--character--inject-28"><g id="freepik--bottom--inject-28"><g id="freepik--Leg--inject-28"><path d="M255.83,171.94A2.71,2.71,0,0,0,257,174.2a12.66,12.66,0,0,0,9.41.78c3.55-1.1,5.15-2.95,5.84-5.37a14.55,14.55,0,0,0-.48-8.36c-.64-2.1-.2-4.95.06-7.08.45-3.63.11-5.81-1.07-7.48a5.13,5.13,0,0,0-5.84-1.95l.7,24.92Z"></path><path d="M260.2,160.89a8.62,8.62,0,0,1-2.16,6.38c-1.25,1.71-4.52,4.39-.34,6.45,3.26,1.6,11.37,1.43,13.53-4,1.68-4.19-.85-8.11-.23-13.6.42-3.69.1-10.12-4.18-11.11-2.34-.54-3.1-.49-6.77,1.38-2.55,1.31-2.76,1.89-2.66,2.24l.62-.29a4.65,4.65,0,0,1,4.87,2.09,7.47,7.47,0,0,1,.07,8Z" style="fill:#263238"></path><path d="M263.54,150.16c-2-3.69-4.8-3.44-4.8-3.44l-13.35,6.8s5.42-9.78,7-15.63,1-13.51.09-17.4l-20.74,1.57s-16.17,33.07-18.28,44.59c-1.24,6.8-.56,11.55,2.65,14.11,5.43,4.33,11.72,2.47,21.66-3.52s25.92-15.41,25.92-15.41S266.77,156,263.54,150.16Z" style="fill:#455a64"></path><path d="M237.81,177.24c10.06-6.05,25.92-15.41,25.92-15.41s3-5.85-.19-11.67c-2-3.66-4.74-3.45-4.79-3.45h0l-13.35,6.8h0s2.46-4.44,4.56-9.13v0h0l.26-.57h0v0l.24-.55v0c.38-.86.73-1.73,1-2.56l0-.06c.11-.27.2-.54.3-.8l-16.72-5.41c1,6,5.92,11.63,5.92,11.63s-6.7,17.53-10,26.12c-2.59,6.74-8.56,8.74-12.86,7.69a6.66,6.66,0,0,1-5-4.25h0a10.74,10.74,0,0,0,.43,1.58h0a7.69,7.69,0,0,0,.28.72l0,0a6.36,6.36,0,0,0,.32.64.41.41,0,0,1,.05.09c.11.18.22.37.34.54l.12.16c.1.14.21.29.32.42s.16.17.23.26l.27.28c.18.17.36.34.56.5a12.2,12.2,0,0,0,2.08,1.34,10.25,10.25,0,0,0,1.64.63A8.43,8.43,0,0,0,221,183a11.33,11.33,0,0,0,1.77.14h0c.38,0,.77,0,1.17-.07a15.86,15.86,0,0,0,2.66-.5c.69-.19,1.39-.42,2.12-.69.48-.18,1-.38,1.49-.6a65.45,65.45,0,0,0,7.58-4Z" style="fill:#37474f"></path><path d="M244.77,161.75c3.95-5.06,14.88-12,17.28-13.57a4.65,4.65,0,0,0-3.3-1.47h0l-6.68,3.39-6.67,3.41s-6.46,14-11.71,16.08A24.89,24.89,0,0,0,244.77,161.75Z" style="opacity:0.15"></path></g><g id="freepik--Le--inject-28"><path d="M273,182.4a2.71,2.71,0,0,0,1.18,2.26,12.71,12.71,0,0,0,9.41.78c3.55-1.1,5.15-2.95,5.84-5.37a14.58,14.58,0,0,0-.48-8.37c-.64-2.1-.2-4.94.06-7.07.45-3.63.11-5.81-1.07-7.48a5.13,5.13,0,0,0-5.84-2l.7,24.91Z" style="fill:#263238"></path><path d="M276.2,170.46c0,3.26.47,5.33-1,7.27-1.25,1.7-4.52,4.39-.34,6.45,3.26,1.6,11.36,1.43,13.53-4,1.68-4.19-.86-8.11-.23-13.61.42-3.68.09-10.12-4.19-11.1-2.33-.54-3.1-.5-6.76,1.38-2.55,1.3-2.76,1.89-2.66,2.23l.62-.28a4.66,4.66,0,0,1,4.87,2.08,7.49,7.49,0,0,1,.07,8Z" style="fill:#37474f"></path><path d="M281.23,160.46a5.59,5.59,0,0,0-6.71-2.91l-10,5.52s5.83-9.55,8.05-15.2c2.62-6.7,4.59-12.84,3.86-22.53H233.28a25.84,25.84,0,0,0,10.14,20s-9,22.36-10.87,29.91c-1.71,7.12-.5,12.47,2.71,15,5.43,4.34,12.48,3.66,22.42-2.33s24.16-16,24.16-16A13,13,0,0,0,281.23,160.46Z" style="fill:#455a64"></path><path d="M263.88,171.31c6.12-8.42,11.61-11.9,14.43-13.62a6,6,0,0,0-3.79-.14h0l-10,5.52s-6.46,14-11.71,16.09A22.55,22.55,0,0,0,263.88,171.31Z" style="fill:#37474f"></path></g></g><g id="freepik--top--inject-28"><g id="freepik--Chest--inject-28"><path d="M227.17,92.83c-.53-12.65,2.63-16.12,5.46-18.31a38.44,38.44,0,0,1,11.56-2.15c6.63-.22,14.22,1.31,22.43,4.78,2.77,1.17,3.71,2.8,5.89,10.3,1.78,6.09,1.94,8.16,3,16.85a172.5,172.5,0,0,1,1.28,27.32c-7.59,5.11-36.89,4.86-46.65-6.28,1.6-3.64,1.6-8,.34-14.17C228.7,102.13,227.38,97.85,227.17,92.83Z" style="fill:#f5f5f5"></path><path d="M245.43,72.35v1c6.39,0,13.38,1.59,20.8,4.72,2.28,1,3.1,2,5.32,9.66,1.6,5.49,1.87,7.6,2.74,14.59l.27,2.11a172.41,172.41,0,0,1,1.29,26.62c-3,1.72-8.87,2.78-15.69,2.78-9.56,0-22.7-2.29-28.81-8.69,1.38-3.59,1.42-7.88.15-14.17-.54-2.68-1-4.94-1.47-6.93a64.83,64.83,0,0,1-1.86-11.25c-.5-11.93,2.27-15.27,5-17.39a38.51,38.51,0,0,1,11.1-2c.4,0,.81,0,1.21,0v-1m0,0c-.41,0-.83,0-1.24,0a38.44,38.44,0,0,0-11.56,2.15c-2.83,2.19-6,5.66-5.46,18.31.21,5,1.53,9.3,3.35,18.34,1.26,6.22,1.26,10.53-.34,14.17,5.89,6.73,18.92,9.49,30,9.49,7.25,0,13.66-1.19,16.67-3.21a172.5,172.5,0,0,0-1.28-27.32c-1.1-8.69-1.26-10.76-3-16.85-2.18-7.5-3.12-9.13-5.89-10.3-7.7-3.25-14.86-4.8-21.19-4.8Z" style="fill:#e0e0e0"></path></g><g id="freepik--Head--inject-28"><path d="M251.66,66.86c-.16-3.37,2.33-7.47,3.17-10.63s1.18-5.34.46-7.87c-.43-1.51-1.84-3.36-3.06-3.54.06-6-4.62-7.29-6.68-7.55-.9-.11-2.85-.16-3.75-.32-1.34-.25-1.84-1.17-3-1.8-2-1.07-4.89-.47-5.5,2-1.45-1.21-3-.84-4.65,0A3.1,3.1,0,0,0,227.06,41a3.25,3.25,0,0,0-4.38,2.79c.06,1.06.47,1.88,0,3s-2,1.5-2.59.76c.08,1.51.89,2.5,2.46,2.07a3.4,3.4,0,0,0,.2,2.88A3.08,3.08,0,0,0,225.94,54a5.24,5.24,0,0,0,1.2,2.08,5.3,5.3,0,0,0,2.23,1.27,33.65,33.65,0,0,0,8.09.38l3.2,0c.19,0,1.13-.14,1.27,0Z" style="fill:#263238"></path><path d="M254.81,61.16a3,3,0,0,1-3.7.67l1.8,11.52c-.45,1.68-2.3,3.9-4.57,6.18-2.75,2.76-4.91,3.08-8.4,7.75a21,21,0,0,1-1.08-11.63l-.33-2.57a11.91,11.91,0,0,1-3.75.31,7.41,7.41,0,0,1-6.3-4.23c-1.39-2.72-2.1-6.87-2.23-10.47a9.9,9.9,0,0,0-.44-2.7,12.91,12.91,0,0,1-.47-5.92c2.31-2.87,8.63-5.06,15.49-2.71.08,3.75,2.11,6.3,5,7.1.09,1,.5,3.48,2.09,3.08,1.14-.28.91-1.74,1.81-3.27s3.58-2.48,5.06-.83A5.59,5.59,0,0,1,254.81,61.16Z" style="fill:#ffa8a7"></path><path d="M236.71,52.74l2.78.61a1.5,1.5,0,0,0-1.12-1.74A1.39,1.39,0,0,0,236.71,52.74Z" style="fill:#263238"></path><path d="M226.76,55.82l2.13-1.92a1.38,1.38,0,0,0-2-.15A1.51,1.51,0,0,0,226.76,55.82Z" style="fill:#263238"></path><path d="M238.53,73.08c3.94-1.36,7.69-3.06,9.65-5.78a10.49,10.49,0,0,0,1.74-5.36,10.18,10.18,0,0,1-.69,5.82c-.85,2-3.46,4.8-10.5,6.84Z" style="fill:#f28f8f"></path><path d="M236.75,56.78a1.16,1.16,0,1,0,.94-1.39A1.18,1.18,0,0,0,236.75,56.78Z" style="fill:#263238"></path><path d="M238.56,63.68l-3,1.64A1.8,1.8,0,0,0,238,66,1.67,1.67,0,0,0,238.56,63.68Z" style="fill:#b16668"></path><path d="M237,66.21a2,2,0,0,1,1.71-2.08A1.65,1.65,0,0,1,238,66,1.67,1.67,0,0,1,237,66.21Z" style="fill:#f28f8f"></path><path d="M227.68,58.57a1.17,1.17,0,1,0,.82-1.47A1.19,1.19,0,0,0,227.68,58.57Z" style="fill:#263238"></path></g><path d="M233.94,54.61a17.52,17.52,0,0,0-3.45,8.17l4,.54Z" style="fill:#f28f8f"></path><path d="M239.94,87.28c1.36-2.36,3.69-5.8,4.89-6.59s6.73-4.74,7.92-8.4l-.21-1.3a2,2,0,0,1,1.27.46c.73.53,4.43,2.76,4.43,2.76a28.27,28.27,0,0,1-4,7.27,23.76,23.76,0,0,1-8.61,6.78s-.5-2-1-3.7C244,82.42,243.23,84,239.94,87.28Z" style="fill:#ebebeb"></path><path d="M239.94,87.28a38.49,38.49,0,0,1-1.08-11.63l-.33-2.57a11.79,11.79,0,0,1-2,.29s-2.69,7.44-1.36,13.14c.87-3.58,2.37-4.82,2.68-3.76A21.51,21.51,0,0,0,239.94,87.28Z" style="fill:#ebebeb"></path><path d="M262.19,113.87c-3,6.67-4.59,9.6-8.38,12.67-2.75,2.22-5.54,4.32-11,8.44s-7.83,5.4-11.79,8.92c-1.57,1.4-3,3-4.28,4.2-2,1.92-2.94,3.05-4.69,4.07-1.2.7-2.32,1.6-3.55,2.21a14.14,14.14,0,0,1-2.88.73c-1.06.27-1.93,1-3.05,1.1-2,.17-3.25-.6-4.71-1-1,.31-2.89,1.13-3.91,1.35-2.59.58-.8-2.3,0-3.16a16.89,16.89,0,0,1,2.78-2.41,85,85,0,0,0,7.22-5.78c.4-.37,2.29-1.71,1.6-2.26a1.06,1.06,0,0,0-.84-.11,26.93,26.93,0,0,0-2.64.83,13,13,0,0,1-2.14.37,4.51,4.51,0,0,1-1.83,0c-.6-.16-2.36-1.34-1.81-2.17a1,1,0,0,1,.37-.29c1-.53,2-1,3-1.5a28.38,28.38,0,0,0,2.88-1.67c2.79-2,5.08-2.45,8.41-3s6.76-3.68,10.07-7.49c7.54-8.66,12.67-13.52,13.71-14.8l6.37-16a62.78,62.78,0,0,1,5.19-13.29c3.22-6.16,8.47-6.89,8.47-6.89,6.37,2.35,9.05,9.58,5.72,17.73C267.69,101.25,265,107.61,262.19,113.87Z" style="fill:#ffa8a7"></path><path d="M264.37,76.24c4.35,1.65,6.17,3.87,7.15,7.54s1.41,5.84-1.89,13.68-9.25,21.92-10.79,24.16-2.14,2.73-6.4,6c0,0-3,.37-6.7-3a15.63,15.63,0,0,1-4.56-7.88l3.3-3.65s4.34-12.49,6.37-18S255.81,78.44,264.37,76.24Z" style="fill:#ebebeb"></path><path d="M242.68,115.1l-.77.85a13.79,13.79,0,0,0,3,6.67c2.59,3,8.51,4.22,8.51,4.22l1.11-.86a2.64,2.64,0,0,1-.84,2.57c-1.21.87-1.73.71-2,1.74s-1.21,2-3.76,1.94-4.89-1.47-7-3.72c-3-3.17-4.23-6.8-3.78-9.27s2.14-1.9,2.57-2.81S241.59,114.11,242.68,115.1Z" style="fill:#e0e0e0"></path></g></g></g></g><g id="freepik--speech-bubble--inject-28"><g id="freepik--speech-bubble--inject-28"><g id="freepik--speech-bubble--inject-28"><path d="M130.46,102.1a25.3,25.3,0,0,1,5.73,17.7l-.35,2.88a25.31,25.31,0,0,1-50.23-4.79l.21-2.89a25.32,25.32,0,0,1,44.64-12.9Z" style="fill:#fff"></path><path d="M93.43,97.05a27.47,27.47,0,0,0,31.22,45l7.44,4.18a1.6,1.6,0,0,0,2.3-1.9l-2.69-8.1A27.47,27.47,0,0,0,93.43,97.05Zm37,5a25.3,25.3,0,0,1,5.73,17.7l-.35,2.88a25.31,25.31,0,0,1-50.23-4.79l.21-2.89a25.32,25.32,0,0,1,44.64-12.9Z" style="fill:#455a64"></path><path d="M130.46,102.1a25.3,25.3,0,0,1,5.73,17.7l-.35,2.88a25.31,25.31,0,0,1-50.23-4.79l.21-2.89a25.32,25.32,0,0,1,44.64-12.9Z" style="fill:#fff;opacity:0.7000000000000001"></path></g><polygon id="freepik--arrow--inject-28" points="124.05 119.06 110.93 103.16 97.8 119.06 104.03 119.06 104.03 130.67 117.82 130.67 117.82 119.06 124.05 119.06" style="fill:#F5CD3F"></polygon></g></g></svg>
